PathFileType	4	(X/Y/Z)	C:\Users\Biomechanik\SynologyDrive\AlexP\Athlete_03\Athlete_3_25_03_31\Squat_35kg_01\marker_experimental.trc
DataRate	CameraRate	NumFrames	NumMarkers	Units	OrigDataRate	OrigDataStartFrame	OrigNumFrames
200.000000	200.000000	4	55	mm	200.000000	242	646
Frame#	Time	BL			BR			GLAB			RFHD			LFHD			C7			T6			SPINMOL			SPINM2			SPINM3			T12			BELTOL			BELT2			BELT3			SACROL			SACR2			SACR3			LTHOL			LTH2			LTH3			LSHAOL			LSHA2			LSHA3			LHEE			LTOE			LM5			RTHOL			RTH2			RTH3			RSHAOL			RSHA2			RSHA3			RHEE			RTOE			RM5			STRN			XIPH			LACR			LUAOL			LUA2			LUA3			LLAOL			LLA2			LLA3			LWRR			LWRU			RACR			RUAOL			RUA2			RUA3			RLAOL			RLA2			RLA3			RWRR			RWRU			
		X1	Y1	Z1	X2	Y2	Z2	X3	Y3	Z3	X4	Y4	Z4	X5	Y5	Z5	X6	Y6	Z6	X7	Y7	Z7	X8	Y8	Z8	X9	Y9	Z9	X10	Y10	Z10	X11	Y11	Z11	X12	Y12	Z12	X13	Y13	Z13	X14	Y14	Z14	X15	Y15	Z15	X16	Y16	Z16	X17	Y17	Z17	X18	Y18	Z18	X19	Y19	Z19	X20	Y20	Z20	X21	Y21	Z21	X22	Y22	Z22	X23	Y23	Z23	X24	Y24	Z24	X25	Y25	Z25	X26	Y26	Z26	X27	Y27	Z27	X28	Y28	Z28	X29	Y29	Z29	X30	Y30	Z30	X31	Y31	Z31	X32	Y32	Z32	X33	Y33	Z33	X34	Y34	Z34	X35	Y35	Z35	X36	Y36	Z36	X37	Y37	Z37	X38	Y38	Z38	X39	Y39	Z39	X40	Y40	Z40	X41	Y41	Z41	X42	Y42	Z42	X43	Y43	Z43	X44	Y44	Z44	X45	Y45	Z45	X46	Y46	Z46	X47	Y47	Z47	X48	Y48	Z48	X49	Y49	Z49	X50	Y50	Z50	X51	Y51	Z51	X52	Y52	Z52	X53	Y53	Z53	X54	Y54	Z54	X55	Y55	Z55	

243	1.21	192.1610870361328	1117.449096679688	-2223.6953125	205.8036193847656	1129.009765625	-203.200210571289	488.9896850585938	1301.43115234375	-1180.238891601562	436.1531066894531	1325.845581054688	-1118.78076171875	447.9181518554688	1324.786254882812	-1254.4658203125	252.6126861572266	1185.7197265625	-1193.043212890625	133.4936218261719	1063.970336914062	-1203.617797851562	111.6895523071289	1040.359741210938	-1220.652465820312	102.4672164916992	1033.42041015625	-1171.81640625	80.51729583740234	983.1511840820314	-1208.6787109375	56.31697845458984	925.9544067382814	-1207.665893554688	19.28997421264648	907.6563720703126	-1222.416137695312	16.97732734680176	904.1511230468751	-1172.03662109375	-15.39198017120361	854.7908325195314	-1202.8515625	-62.78094863891602	757.3705444335939	-1231.17041015625	-61.43172073364258	756.0239257812501	-1179.599365234375	-76.10298156738281	697.1590576171876	-1206.392578125	112.6581726074219	540.9738159179689	-1488.984008789062	128.2124328613281	463.3083496093751	-1490.014282226562	154.4902496337891	501.247283935547	-1510.32861328125	192.7713165283203	312.446502685547	-1600.524169921875	133.4969177246094	265.0372009277345	-1575.814697265625	179.3370361328125	252.3857421875001	-1593.2880859375	74.1639404296875	70.0271759033204	-1492.623901367188	282.7734069824219	50.17701721191415	-1545.349853515625	216.9951782226562	23.50283813476572	-1634.294921875	83.52029418945312	539.1502685546875	-919.5582885742188	143.718505859375	554.3646240234375	-869.2241821289062	129.8456420898438	510.7073059082032	-888.55517578125	159.4438018798828	331.9476318359376	-798.4645385742188	169.0472412109375	254.2092895507813	-790.0325317382812	131.8650665283203	277.6846008300782	-813.0524291992188	53.88158416748047	65.66503906250006	-913.4934692382812	251.2752990722656	47.47846984863286	-835.1964721679688	169.3539733886719	35.76205062866216	-755.5320434570312	370.745361328125	1029.830200195312	-1196.010009765625	333.8923950195312	886.4841308593751	-1192.349609375	280.9711608886719	1146.833618164062	-1354.003540039062	157.0955047607422	1050.414916992188	-1444.064453125	105.6110458374023	1011.24951171875	-1433.064453125	132.6796722412109	998.2669067382814	-1474.363037109375	94.57372283935547	935.2579956054689	-1544.7275390625	162.5600433349609	924.7755126953126	-1585.009643554688	137.6245880126953	968.5687866210939	-1572.201049804688	197.8085021972656	1044.7353515625	-1610.647705078125	221.0990447998047	1064.71875	-1537.155151367188	287.9381408691406	1142.728515625	-1041.628662109375	168.0994110107422	1047.094482421875	-956.8841552734374	136.6548614501953	996.9747314453125	-927.0829467773436	117.1504211425781	1009.130859375	-974.1195068359374	115.5223922729492	926.1362915039062	-839.3683471679688	127.6787414550781	1004.130554199219	-825.8754272460936	156.7852172851562	964.7147216796875	-812.5256347656249	198.1354217529297	1045.024169921875	-787.1777343749999	233.1257019042969	1072.758544921875	-854.4582519531249	
244	1.215	192.4654998779297	1114.818237304688	-2223.743408203125	206.0239868164062	1126.385009765625	-203.2458953857421	489.3048400878906	1298.676635742188	-1180.329223632812	436.4864807128906	1323.112182617188	-1118.8681640625	448.2248229980469	1322.020141601562	-1254.555541992188	252.9075622558594	1183.057495117188	-1193.080932617188	133.7295989990234	1061.372924804688	-1203.643798828125	111.93310546875	1037.856689453125	-1220.6611328125	102.7160263061523	1030.889770507812	-1171.821044921875	80.68255615234375	980.6804809570314	-1208.734130859375	56.42118453979492	923.5701904296876	-1207.71142578125	19.40930366516113	905.3902587890626	-1222.457641601562	17.07560157775879	901.8709716796876	-1172.074584960938	-15.32292079925537	852.5679931640626	-1202.881469726562	-62.929931640625	755.0438232421876	-1231.278930664062	-61.58732986450195	753.6661987304689	-1179.711181640625	-76.23385620117188	694.8153686523439	-1206.53857421875	112.7838363647461	539.5708007812501	-1489.531005859375	128.6716003417969	461.9520874023439	-1490.796020507812	154.7371368408203	500.0854492187501	-1511.050415039062	193.0588989257812	312.1861877441407	-1601.174072265625	133.7579040527344	264.9326477050782	-1576.257446289062	179.5390930175781	252.1645660400391	-1593.781005859375	74.19418334960938	70.0633087158204	-1492.624389648438	282.7782897949219	50.17975997924814	-1545.393310546875	216.9828491210938	23.45927619934092	-1634.330688476562	83.81837463378906	537.5389404296875	-919.3843994140625	143.9010772705078	553.1957397460938	-869.05126953125	130.2389831542969	509.4065856933594	-888.23974609375	159.9519805908203	331.7122802734376	-798.106689453125	169.3862762451172	253.9428710937501	-789.7546997070312	132.2819213867188	277.5198059082032	-812.7923583984375	53.92485427856445	65.70119476318365	-913.5206298828125	251.2863159179688	47.47286987304692	-835.1939697265625	169.354736328125	35.76329040527349	-755.5304565429688	370.9793701171875	1027.095336914062	-1196.033935546875	334.0536193847656	883.7519531250001	-1192.33984375	281.2737121582031	1144.128173828125	-1354.038940429688	157.37158203125	1047.773559570312	-1444.078125	105.8732376098633	1008.626525878906	-1433.095581054688	132.9359436035156	995.6478271484376	-1474.400390625	94.85426330566406	932.5873413085939	-1544.783203125	162.8750305175781	922.1005859375001	-1585.012939453125	137.9295196533203	965.8953247070314	-1572.232177734375	198.1173706054688	1042.066528320312	-1610.655029296875	221.3785858154297	1062.058715820312	-1537.157836914062	288.2290954589844	1140.01806640625	-1041.678955078125	168.3652038574219	1044.41748046875	-956.8563232421874	136.9264221191406	994.2863159179688	-927.0731201171874	117.4185943603516	1006.457763671875	-974.1053466796874	115.8013916015625	923.45166015625	-839.3723754882812	127.989990234375	1001.447204589844	-825.8684692382811	157.0682830810547	962.0363159179688	-812.5451660156249	198.4057159423828	1042.3623046875	-787.2166748046874	233.3819122314453	1070.095336914062	-854.5058593749999	
245	1.22	192.7717437744141	1112.1923828125	-2223.78662109375	206.2407531738281	1123.76220703125	-203.2869567871093	489.6174926757812	1295.932373046875	-1180.421142578125	436.8186340332031	1320.388793945312	-1118.956787109375	448.5263977050781	1319.2626953125	-1254.64404296875	253.198974609375	1180.4013671875	-1193.113647460938	133.9633941650391	1058.781005859375	-1203.667724609375	112.1749801635742	1035.355712890625	-1220.669799804688	102.9610290527344	1028.361083984375	-1171.823364257812	80.84737396240234	978.2106323242189	-1208.788818359375	56.52591323852539	921.1843261718751	-1207.760498046875	19.52542877197266	903.1181030273439	-1222.508911132812	17.17270851135254	899.5850830078126	-1172.12353515625	-15.24872303009033	850.3331909179689	-1202.921630859375	-63.07587432861328	752.6963500976564	-1231.40087890625	-61.73918151855469	751.2899169921876	-1179.836303710938	-76.35220336914062	692.4487915039064	-1206.696655273438	112.9194564819336	538.1477050781251	-1490.069702148438	129.1469421386719	460.5810852050782	-1491.561889648438	154.9911346435547	498.9085083007814	-1511.765014648438	193.3487854003906	311.9226074218751	-1601.824829101562	134.0190887451172	264.8253173828126	-1576.705444335938	179.7423095703125	251.9408721923829	-1594.276611328125	74.22542572021484	70.09959411621102	-1492.624877929688	282.7840270996094	50.18260955810556	-1545.436889648438	216.9701843261719	23.41511154174815	-1634.366333007812	84.11655426025391	535.9201049804688	-919.2186889648438	144.0797729492188	552.0183715820312	-868.8839721679688	130.63134765625	508.0995483398438	-887.9310913085938	160.454345703125	331.4801330566407	-797.749755859375	169.7184600830078	253.6782226562501	-789.4751586914062	132.69384765625	277.3560791015626	-812.5352172851562	53.96937942504883	65.7359237670899	-913.5477905273438	251.2976837158203	47.46726608276372	-835.1925048828125	169.3555603027344	35.76427459716802	-755.5289916992188	371.2118530273438	1024.368774414062	-1196.056030273438	334.2148132324219	881.0289306640626	-1192.330322265625	281.5729370117188	1141.43212890625	-1354.071533203125	157.6431579589844	1045.1416015625	-1444.093017578125	106.1315078735352	1006.011779785156	-1433.126220703125	133.1899261474609	993.0357666015626	-1474.435791015625	95.13008880615234	929.9252319335939	-1544.835571289062	163.1855163574219	919.4332275390626	-1585.01318359375	138.2294158935547	963.2300415039064	-1572.26025390625	198.4235687255859	1039.404907226562	-1610.658447265625	221.6551513671875	1059.405395507812	-1537.15625	288.5172424316406	1137.31591796875	-1041.721557617188	168.6271362304688	1041.746826171875	-956.8286132812499	137.1935729980469	991.6052856445312	-927.0626831054686	117.6831817626953	1003.790832519531	-974.0905151367186	116.074462890625	920.774658203125	-839.37353515625	128.2985076904297	998.7717895507812	-825.8571166992186	157.3449859619141	959.3653564453125	-812.5609130859374	198.6702728271484	1039.707275390625	-787.2510986328124	233.6340026855469	1067.4384765625	-854.5485229492186	
246	1.225	193.0801544189453	1109.570556640625	-2223.825439453125	206.4543914794922	1121.140380859375	-203.3233947753906	489.9278869628906	1293.197509765625	-1180.513916015625	437.1494750976562	1317.674560546875	-1119.046142578125	448.8233032226562	1316.513793945312	-1254.730346679688	253.4867858886719	1177.751342773438	-1193.141845703125	134.1952514648438	1056.194091796875	-1203.690795898438	112.4154281616211	1032.856689453125	-1220.679565429688	103.2021102905273	1025.83447265625	-1171.825561523438	81.01225280761719	975.7413940429689	-1208.843383789062	56.63162612915039	918.7965698242189	-1207.813232421875	19.63872146606445	900.8397827148439	-1222.569091796875	17.26915550231934	897.2939453125001	-1172.182006835938	-15.1712121963501	848.0866088867189	-1202.972290039062	-63.22004318237305	750.3280639648439	-1231.534912109375	-61.88856887817383	748.8957519531251	-1179.973266601562	-76.45981597900391	690.0598144531251	-1206.864868164062	113.064094543457	536.7030639648439	-1490.59765625	129.6381072998047	459.1944274902345	-1492.3095703125	155.2527008056641	497.714813232422	-1512.469482421875	193.6415863037109	311.6555786132814	-1602.474365234375	134.2801818847656	264.7148742675782	-1577.158081054688	179.9471130371094	251.714584350586	-1594.773071289062	74.25771331787109	70.13587188720712	-1492.625	282.7906799316406	50.18542098999033	-1545.480346679688	216.9573669433594	23.37070655822764	-1634.4013671875	84.41427612304688	534.2965698242188	-919.0574951171875	144.2555541992188	550.834716796875	-868.72021484375	131.0222625732422	506.7884216308594	-887.6262817382812	160.9512329101562	331.2505798339844	-797.39208984375	170.0451354980469	253.4145507812501	-789.1942749023438	133.1011199951172	277.1926574707032	-812.2791748046875	54.01534271240234	65.76914978027349	-913.5748291015625	251.3093872070312	47.46159362792974	-835.1920776367188	169.3564910888672	35.76499557495122	-755.527587890625	371.4430236816406	1021.651123046875	-1196.076782226562	334.3763122558594	878.3156738281251	-1192.323120117188	281.8684692382812	1138.745849609375	-1354.101806640625	157.9109344482422	1042.519165039062	-1444.110229492188	106.3867034912109	1003.405456542969	-1433.157348632812	133.4422760009766	990.4307861328126	-1474.470458984375	95.40186309814453	927.2721557617189	-1544.885498046875	163.4916534423828	916.7739868164064	-1585.011596679688	138.5247802734375	960.5735473632814	-1572.286010742188	198.7274780273438	1036.7509765625	-1610.6591796875	221.9294738769531	1056.7587890625	-1537.151245117188	288.8027648925781	1134.62158203125	-1041.757080078125	168.8849945068359	1039.082397460938	-956.8022460937499	137.4558868408203	988.931640625	-927.0526733398436	117.9439163208008	1001.130065917969	-974.0760498046874	116.3411026000977	918.1055297851562	-839.3723754882812	128.6001129150391	996.1044921875	-825.8432617187499	157.6149291992188	956.7018432617188	-812.5733032226561	198.9291687011719	1037.05859375	-787.2810668945311	233.8822021484375	1064.787719726562	-854.5861816406249	
